<svg xmlns="http://www.w3.org/2000/svg" width="598.42" height="151.82"><rect id="backgroundrect" width="100%" height="100%" x="0" y="0" fill="none" stroke="none"/><g class="currentLayer" style=""><title>Layer 1</title><g id="Capa_8" data-name="Capa 8" class="selected" stroke="#ffffff" stroke-opacity="1" fill="#ffffff" fill-opacity="1" opacity="1"><path d="M334.5000134277344,150.81000549316406 c-22.38,0 -41.74,-17.29 -41.74,-38.2 V79.43000549316406 c0,-16.29 13.55,-29.16 31.2,-29.16 h26.89 V20.110005493164067 l-12.91,-2 v-18.1 h38.73 V130.7100054931641 l12.91,2 v18.09 zm16.35,-22.12 v-56.3 H326.11001342773443 c-4.3100000000000005,0 -13,5.57 -13,9.8 v27.92 c0,8.05 2.79,19.55 21.55,18.58 z" id="svg_1" stroke="#ffffff" stroke-opacity="1" fill="#ffffff" fill-opacity="1" opacity="1"/></g><g id="Capa_7" data-name="Capa 7" class="selected" stroke="#ffffff" stroke-opacity="1" fill="#ffffff" fill-opacity="1" opacity="1"><path d="M437.06001342773436,151.81000549316406 c-22.38,0 -40.88,-17.29 -40.88,-38.2 V80.43000549316406 c0,-16.29 12.91,-29.16 30.12,-29.16 H447.82001342773435 c18.93,0 32.27,12.07 32.27,29.16 s-13.34,26.14 -26.89,29.16 l-31.2,7 c0.8600000000000001,8.45 6.88,13.07 15.06,13.07 h38.73 v22.12 zm-7.53,-78.42 c-4.3,0 -7.53,3 -7.53,7 v13.07 l25.82,-6 c4.3,-1 6.45,-3.62 6.45,-7 c0,-4.43 -3.23,-7 -7.53,-7 z" id="svg_2" stroke="#ffffff" stroke-opacity="1" fill="#ffffff" fill-opacity="1" opacity="1"/></g><g id="Capa_6" data-name="Capa 6" class="selected" stroke="#ffffff" stroke-opacity="1" fill="#ffffff" fill-opacity="1" opacity="1"><path d="M559.6900134277344,71.38000549316405 l-12.91,-2 V51.24000549316406 H598.4200134277344 v18.1 l-12.91,2 L555.4200134277344,151.81000549316406 H531.7200134277343 l-30.12,-80.43 l-12.91,-2 V51.24000549316406 h51.64 v18.1 l-12.91,2 l16.14,46.25 z" id="svg_3" stroke="#ffffff" stroke-opacity="1" fill="#ffffff" fill-opacity="1" opacity="1"/></g><g id="Capa_5" data-name="Capa 5" class="selected" stroke="#ffffff" stroke-opacity="1" fill="#ffffff" fill-opacity="1" opacity="1"><path d="M71.00001342773442,71.38000549316405 l-12.91,-2 V51.24000549316406 h51.64 v18.1 l-12.91,2 l-30.12,80.43 H43.03001342773439 l-30.12,-80.43 l-12.91,-2 V51.24000549316406 h51.64 v18.1 l-12.91,2 l16.13,46.25 z" id="svg_4" stroke="#ffffff" stroke-opacity="1" fill="#ffffff" fill-opacity="1" opacity="1"/></g><g id="Capa_4" data-name="Capa 4" class="selected" stroke="#ffffff" stroke-opacity="1" fill="#ffffff" fill-opacity="1" opacity="1"><path d="M162.42001342773438,51.24000549316406 c18.29,0 31.2,12.870000000000001 31.2,29.16 v51.28 l12.91,2 v18.09 H140.92001342773438 c-20.22,0 -31.19,-11.46 -31.19,-29.15 c0,-13.28 10.54,-24.74 24.74,-28.16 l33.35,-7.84 v-5.23 c0,-4.22 -3.23,-8 -7.53,-8 H139.85001342773432 l-2.15,12.06 H118.33001342773434 V51.24000549316406 zm-18.29,78.42 H167.82001342773435 V108.58000549316404 L142.00001342773442,114.24000549316406 c-3.66,0.8 -6.45,3.42 -6.45,7.44 A8.2,8.2 0 0 0 144.1500134277344,129.69000549316405 z" id="svg_5" stroke="#ffffff" stroke-opacity="1" fill="#ffffff" fill-opacity="1" opacity="1"/></g><g id="Capa_3" data-name="Capa 3" class="selected" stroke="#ffffff" stroke-opacity="1" fill="#ffffff" fill-opacity="1" opacity="1"><polygon points="266.47 5 224.58 150.21 249.72 150.21 290.23 5 266.47 5" id="svg_6" stroke="#ffffff" stroke-opacity="1" fill="#ffffff" fill-opacity="1" opacity="1"/></g></g></svg>